<svg width="920" height="24" viewBox="0 0 920 24" fill="none" xmlns="http://www.w3.org/2000/svg">
<g clip-path="url(#clip0_22_904)">
<path fill-rule="evenodd" clip-rule="evenodd" d="M451.193 6.46313C451.077 6.18285 450.803 6.00006 450.5 6H447.647C446.836 4.61972 445.36 3.76579 443.759 3.75C442.575 3.73446 441.434 4.19754 440.595 5.03438C439.732 5.88138 439.247 7.04071 439.25 8.25V8.82094C435.476 7.82531 432.388 4.755 432.356 4.72219C432.15 4.51493 431.843 4.44566 431.569 4.54461C431.294 4.64356 431.102 4.89277 431.076 5.18344C430.672 9.66375 431.973 12.6619 433.138 14.3878C433.707 15.241 434.398 16.0055 435.19 16.6566C433.762 18.3 431.514 19.1634 431.489 19.1728C431.275 19.2531 431.109 19.4269 431.039 19.6448C430.968 19.8627 431.001 20.1008 431.128 20.2913C431.199 20.3962 431.48 20.7647 432.167 21.1087C433.017 21.5344 434.139 21.75 435.5 21.75C442.125 21.75 447.661 16.6481 448.227 10.0837L451.031 7.28062C451.245 7.06601 451.309 6.74335 451.193 6.46313ZM446.974 9.22031C446.845 9.34921 446.768 9.52049 446.757 9.70219C446.375 15.6169 441.432 20.25 435.5 20.25C434.51 20.25 433.812 20.1187 433.323 19.9613C434.402 19.3753 435.907 18.3675 436.874 16.9163C436.989 16.7438 437.027 16.5315 436.98 16.3298C436.933 16.128 436.804 15.9548 436.625 15.8512C436.581 15.8259 432.508 13.3819 432.5 6.85125C434 8.07 436.742 9.96094 439.875 10.4878C440.093 10.5245 440.315 10.4636 440.484 10.3215C440.652 10.1794 440.749 9.9704 440.75 9.75V8.25C440.748 7.44176 441.073 6.66702 441.65 6.10125C442.203 5.54686 442.957 5.23983 443.741 5.25C444.927 5.265 446.037 5.98875 446.501 7.05094C446.62 7.32382 446.89 7.50008 447.188 7.5H448.688L446.974 9.22031Z" fill="#45A159"/>
</g>
<g clip-path="url(#clip1_22_904)">
<path fill-rule="evenodd" clip-rule="evenodd" d="M488.25 2.25H471.75C470.922 2.25 470.25 2.92157 470.25 3.75V20.25C470.25 21.0784 470.922 21.75 471.75 21.75H488.25C489.078 21.75 489.75 21.0784 489.75 20.25V3.75C489.75 2.92157 489.078 2.25 488.25 2.25ZM488.25 20.25H471.75V3.75H488.25V20.25ZM477 10.5V16.5C477 16.9142 476.664 17.25 476.25 17.25C475.836 17.25 475.5 16.9142 475.5 16.5V10.5C475.5 10.0858 475.836 9.75 476.25 9.75C476.664 9.75 477 10.0858 477 10.5ZM485.25 13.125V16.5C485.25 16.9142 484.914 17.25 484.5 17.25C484.086 17.25 483.75 16.9142 483.75 16.5V13.125C483.75 12.0895 482.911 11.25 481.875 11.25C480.839 11.25 480 12.0895 480 13.125V16.5C480 16.9142 479.664 17.25 479.25 17.25C478.836 17.25 478.5 16.9142 478.5 16.5V10.5C478.502 10.1198 478.788 9.80112 479.166 9.75852C479.544 9.71592 479.894 9.96285 479.98 10.3331C481.014 9.63174 482.351 9.55891 483.455 10.1438C484.559 10.7287 485.25 11.8756 485.25 13.125ZM477.375 7.875C477.375 8.49632 476.871 9 476.25 9C475.629 9 475.125 8.49632 475.125 7.875C475.125 7.25368 475.629 6.75 476.25 6.75C476.871 6.75 477.375 7.25368 477.375 7.875Z" fill="#45A159"/>
</g>
<defs>
<clipPath id="clip0_22_904">
<rect width="24" height="24" fill="white" transform="translate(428)"/>
</clipPath>
<clipPath id="clip1_22_904">
<rect width="24" height="24" fill="white" transform="translate(468)"/>
</clipPath>
</defs>
</svg>
