<svg width="18" height="19" viewBox="0 0 18 19" fill="none" xmlns="http://www.w3.org/2000/svg">
<path fill-rule="evenodd" clip-rule="evenodd" d="M17.5153 7.72843L10.0153 0.65218C10.0116 0.648981 10.0082 0.645536 10.005 0.641867C9.43281 0.121493 8.55876 0.121493 7.98656 0.641867L7.97625 0.65218L0.484688 7.72843C0.17573 8.01253 -6.37851e-05 8.41308 1.73613e-08 8.8328V17.5C1.73613e-08 18.3284 0.671573 19 1.5 19H6C6.82843 19 7.5 18.3284 7.5 17.5V13H10.5V17.5C10.5 18.3284 11.1716 19 12 19H16.5C17.3284 19 18 18.3284 18 17.5V8.8328C18.0001 8.41308 17.8243 8.01253 17.5153 7.72843ZM16.5 17.5H12V13C12 12.1716 11.3284 11.5 10.5 11.5H7.5C6.67157 11.5 6 12.1716 6 13V17.5H1.5V8.8328L1.51031 8.82343L9 1.74999L16.4906 8.82156L16.5009 8.83093L16.5 17.5Z" fill="#0D1C0F"/>
</svg>
