<svg width="22" height="18" viewBox="0 0 22 18" fill="none" xmlns="http://www.w3.org/2000/svg">
<path fill-rule="evenodd" clip-rule="evenodd" d="M21.4466 9.46875L18.4466 1.96875V1.96875C18.3101 1.62755 17.9466 1.43545 17.5878 1.515L11.75 2.8125V0.75C11.75 0.335786 11.4142 0 11 0C10.5858 0 10.25 0.335786 10.25 0.75V3.14813L4.08687 4.51781C3.84565 4.5711 3.64613 4.73976 3.55344 4.96875V4.96875V4.97437L0.553437 12.4688C0.517549 12.5581 0.499399 12.6537 0.5 12.75C0.5 14.9353 2.80062 15.75 4.25 15.75C5.69938 15.75 8 14.9353 8 12.75C8.0006 12.6537 7.98245 12.5581 7.94656 12.4688L5.27375 5.79094L10.25 4.6875V16.5H8.75C8.33579 16.5 8 16.8358 8 17.25C8 17.6642 8.33579 18 8.75 18H13.25C13.6642 18 14 17.6642 14 17.25C14 16.8358 13.6642 16.5 13.25 16.5H11.75V4.35187L16.5312 3.29063L14.0534 9.46875C14.0175 9.55815 13.9994 9.65367 14 9.75C14 11.9353 16.3006 12.75 17.75 12.75C19.1994 12.75 21.5 11.9353 21.5 9.75C21.5006 9.65367 21.4825 9.55815 21.4466 9.46875V9.46875ZM4.25 14.25C3.54406 14.25 2.11625 13.9116 2.00656 12.8775L4.25 7.26937L6.49344 12.8775C6.38375 13.9116 4.95594 14.25 4.25 14.25V14.25ZM17.75 11.25C17.0441 11.25 15.6163 10.9116 15.5066 9.8775L17.75 4.26937L19.9934 9.8775C19.8837 10.9116 18.4559 11.25 17.75 11.25V11.25Z" fill="#0D1C0F"/>
</svg>
